<?xml version="1.0" standalone="no"?>
<!DOCTYPE svg PUBLIC "-//W3C//DTD SVG 20010904//EN"
 "http://www.w3.org/TR/2001/REC-SVG-20010904/DTD/svg10.dtd">
<svg version="1.0" xmlns="http://www.w3.org/2000/svg"
 width="250.000000pt" height="250.000000pt" viewBox="0 0 250.000000 250.000000"
 preserveAspectRatio="xMidYMid meet">

<g transform="translate(0.000000,250.000000) scale(0.100000,-0.100000)"
fill="#000000" stroke="none">
<path d="M1060 2483 c-538 -82 -965 -513 -1044 -1054 -20 -134 -20 -224 0
-358 58 -399 311 -752 667 -933 165 -83 391 -138 567 -138 176 0 402 55 567
138 356 181 609 534 667 933 20 134 20 224 0 358 -100 685 -741 1159 -1424
1054z m254 -154 c22 -54 20 -78 -10 -135 -18 -32 -27 -66 -28 -98 -2 -57 -17
-69 -46 -34 -37 44 -37 85 1 157 20 39 34 81 34 105 2 55 3 56 19 50 8 -3 22
-23 30 -45z m-230 -61 c20 -28 20 -85 1 -118 -20 -35 -18 -67 5 -90 11 -11 20
-24 20 -30 0 -21 -33 -9 -66 24 -39 39 -44 76 -19 146 8 23 15 53 15 66 0 30
24 31 44 2z m443 -56 c5 -39 3 -44 -46 -94 -28 -29 -57 -62 -64 -72 -20 -27
-37 -11 -37 34 0 31 9 48 45 91 29 34 45 62 45 79 0 15 3 30 7 34 13 13 45
-32 50 -72z m-141 -248 c45 -9 103 -28 130 -43 47 -25 49 -28 52 -73 3 -43 6
-47 33 -53 64 -14 119 -84 119 -153 0 -72 -71 -142 -145 -142 -27 0 -33 -6
-54 -51 -43 -90 -163 -169 -259 -169 -118 0 -233 69 -285 171 -42 83 -73 355
-48 422 12 30 85 60 211 87 107 23 145 24 246 4z m-578 -548 c37 -19 76 -41
87 -50 18 -13 19 -16 4 -31 -14 -15 -23 -12 -107 30 -94 48 -108 58 -97 75 11
18 44 11 113 -24z m992 5 c0 -25 -205 -130 -221 -114 -21 21 -2 39 88 86 96
51 133 58 133 28z m-925 -150 c21 -4 30 -12 30 -26 0 -19 -7 -20 -123 -20 -92
0 -127 3 -135 14 -9 10 -7 16 8 27 20 15 161 18 220 5z m923 -27 c6 -2 12 -13
12 -24 0 -18 -6 -20 -69 -20 -93 0 -131 8 -131 30 0 9 3 20 7 23 6 7 154 0
181 -9z m-537 -73 c31 -32 37 -62 15 -80 -15 -13 -19 -9 -41 33 -27 52 -55 12
-55 -77 l0 -52 62 5 63 5 7 53 c11 73 33 120 63 134 22 10 30 8 53 -9 35 -26
51 -88 29 -110 -21 -21 -33 -10 -41 38 -4 25 -11 39 -19 36 -14 -4 -34 -58
-39 -107 -3 -34 -2 -35 32 -35 43 -1 61 -11 53 -30 -3 -10 -20 -15 -48 -15
l-43 0 -7 -46 c-3 -25 -3 -97 1 -160 6 -110 6 -114 -14 -114 -11 0 -23 7 -26
16 -3 9 -6 78 -6 155 l0 139 -60 0 -60 0 0 -37 c1 -38 15 -161 26 -220 5 -25
2 -34 -11 -39 -9 -4 -20 -3 -25 2 -10 10 -25 101 -35 212 -7 71 -7 72 -35 72
-16 0 -32 5 -35 10 -10 16 15 40 41 40 22 0 24 4 24 53 0 98 31 157 83 157 10
0 32 -13 48 -29z m-313 -45 c67 -35 100 -100 109 -214 7 -102 -8 -155 -58
-205 -37 -38 -42 -39 -90 -35 -56 6 -102 40 -125 95 -30 69 -8 231 35 257 6 4
11 23 11 42 0 63 56 92 118 60z m701 -60 c31 -16 51 -54 51 -95 0 -40 -16 -49
-94 -57 l-68 -7 6 -41 c9 -56 46 -118 79 -134 68 -33 123 29 138 155 12 96 23
126 61 158 34 29 55 31 103 11 43 -18 67 -64 63 -119 l-3 -42 -80 -12 c-44 -6
-82 -12 -84 -12 -2 -1 -1 -15 3 -33 13 -66 68 -118 105 -99 11 6 23 20 26 32
8 24 48 23 53 -2 4 -24 -44 -77 -78 -84 -38 -8 -94 18 -121 57 l-21 29 -18
-28 c-40 -66 -108 -90 -167 -59 -95 49 -141 207 -92 316 33 75 78 96 138 66z
m-940 -22 c33 -27 41 -61 17 -70 -8 -3 -25 6 -39 20 -34 34 -50 33 -93 -7 -61
-55 -57 -159 7 -192 42 -22 64 -18 93 16 22 26 29 29 41 19 20 -17 19 -24 -11
-59 -47 -57 -136 -50 -192 14 -56 62 -50 168 11 234 56 58 116 68 166 25z
m939 -480 c23 -5 31 -41 13 -59 -6 -6 -28 -43 -50 -83 l-40 -72 45 -85 c26
-48 44 -94 42 -107 l-3 -23 -245 -3 c-135 -2 -265 -4 -290 -5 -25 -1 -100 0
-167 1 -116 2 -123 3 -123 22 0 25 31 88 73 149 30 44 30 45 12 75 -62 107
-86 158 -81 171 4 11 25 15 88 16 46 1 115 5 153 9 70 7 531 3 573 -6z m-837
-196 c16 -30 3 -67 -28 -74 -35 -9 -57 7 -61 44 -6 54 64 78 89 30z m951 7
c17 -37 -3 -75 -40 -75 -35 0 -52 16 -52 50 0 34 17 50 52 50 21 0 32 -7 40
-25z"/>
<path d="M1307 1883 c-3 -5 -7 -24 -9 -43 -2 -26 1 -35 14 -38 18 -3 45 59 33
78 -7 12 -32 13 -38 3z"/>
<path d="M1061 1841 c-52 -9 -52 -31 1 -31 l43 0 -3 -185 -3 -185 -34 0 c-24
0 -35 -5 -35 -15 0 -12 17 -15 95 -15 75 0 95 3 95 14 0 15 -53 32 -69 22 -12
-8 -17 98 -13 250 l3 113 37 3 c25 2 37 8 37 18 0 12 -14 15 -60 16 -33 1 -75
-1 -94 -5z"/>
<path d="M1382 1764 c-35 -24 -29 -70 18 -133 43 -57 56 -121 24 -121 -10 0
-14 7 -12 22 2 15 -3 24 -14 26 -15 3 -18 -4 -18 -32 0 -58 64 -75 91 -24 18
33 4 83 -41 146 -26 38 -38 65 -34 75 7 20 43 23 45 5 1 -7 2 -20 3 -28 0 -8
8 -15 16 -15 24 0 24 51 1 74 -25 25 -49 27 -79 5z"/>
<path d="M1175 1760 c-8 -13 3 -30 20 -30 10 0 15 -27 20 -107 8 -140 8 -137
26 -141 14 -3 15 12 11 123 l-5 125 26 0 c28 0 46 18 25 24 -36 12 -117 16
-123 6z"/>
<path d="M1570 1661 c0 -33 -3 -66 -6 -75 -8 -21 34 -22 64 0 31 22 30 77 -3
109 -41 42 -55 33 -55 -34z"/>
<path d="M880 1072 c0 -26 40 -60 78 -68 36 -7 38 -4 17 36 -25 48 -95 71 -95
32z"/>
<path d="M833 953 c-10 -25 -14 -58 -11 -100 3 -52 9 -68 33 -93 32 -34 68
-39 103 -15 26 19 54 109 50 162 -3 37 -4 38 -51 45 -27 3 -59 14 -72 22 -33
22 -34 21 -52 -21z"/>
<path d="M1571 1004 c-30 -39 -27 -48 17 -40 20 3 43 6 50 6 18 0 15 24 -6 43
-25 23 -37 21 -61 -9z"/>
<path d="M1847 1003 c-8 -10 -19 -30 -22 -45 -6 -25 -4 -28 16 -28 13 0 41 3
62 6 45 8 50 33 11 63 -33 26 -46 26 -67 4z"/>
<path d="M980 528 c-58 -6 -107 -12 -109 -14 -3 -3 33 -71 74 -139 l18 -30
-52 -79 c-28 -43 -51 -82 -51 -86 0 -15 147 -20 457 -13 l322 6 -26 51 c-14
28 -34 63 -44 78 -11 14 -19 33 -19 42 0 9 20 52 45 97 25 45 44 84 42 86 -10
9 -565 10 -657 1z m91 -48 c21 0 39 -4 39 -10 0 -5 -12 -10 -26 -10 l-26 0 3
-115 c3 -81 1 -115 -7 -115 -15 0 -24 57 -24 151 0 69 -2 77 -21 82 -12 3 -18
10 -14 17 4 6 14 9 22 6 8 -3 32 -6 54 -6z m87 -17 c-2 -10 -10 -18 -18 -18
-8 0 -16 8 -18 18 -2 12 3 17 18 17 15 0 20 -5 18 -17z m87 -23 l40 -41 31 37
c18 23 35 34 42 30 17 -11 17 -229 0 -224 -9 3 -15 35 -18 92 l-5 88 -24 -32
-23 -32 -44 43 -44 43 0 -106 c0 -94 -9 -135 -23 -111 -10 18 6 253 17 253 7
0 30 -18 51 -40z m253 -48 c15 -23 15 -25 -3 -38 -10 -8 -32 -14 -47 -14 -38
0 -47 -26 -19 -53 18 -18 24 -20 41 -10 27 17 40 -5 14 -24 -36 -27 -87 1
-101 56 -22 89 68 155 115 83z m-350 -67 c-4 -120 -23 -124 -23 -5 0 92 1 100
16 100 6 0 9 -38 7 -95z"/>
<path d="M1425 384 c-21 -21 -17 -24 25 -15 34 7 34 8 13 19 -18 10 -25 9 -38
-4z"/>
</g>
</svg>
